<svg width="32" height="32" viewBox="0 0 32 32" fill="none" xmlns="http://www.w3.org/2000/svg">
<g clip-path="url(#clip0_1_139)" filter="url(#filter0_d_1_139)">
<path d="M27.6602 17.0977C27.8867 17.5977 28 18.1172 28 18.6562V19.5C28 20.0938 27.8398 20.6367 27.5195 21.1289C27.1992 21.6211 26.7695 21.9883 26.2305 22.2305C25.9883 22.7695 25.6211 23.1992 25.1289 23.5195C24.6367 23.8398 24.0938 24 23.5 24C22.9609 24 22.4609 23.8672 22 23.6016C21.5391 23.3359 21.1719 22.9688 20.8984 22.5H12.6016C12.3281 22.9688 11.9609 23.3359 11.5 23.6016C11.0391 23.8672 10.5391 24 10 24C9.46094 24 8.96094 23.8672 8.5 23.6016C8.03906 23.3359 7.67188 22.9688 7.39844 22.5H5.5C5.28906 22.5 5.09375 22.4609 4.91406 22.3828C4.73438 22.3047 4.57812 22.1992 4.44531 22.0664C4.3125 21.9336 4.20312 21.7734 4.11719 21.5859C4.03125 21.3984 3.99219 21.2031 4 21V18C4 17.375 4.11719 16.7891 4.35156 16.2422C4.58594 15.6953 4.90625 15.2188 5.3125 14.8125C5.71875 14.4062 6.19531 14.0859 6.74219 13.8516C7.28906 13.6172 7.875 13.5 8.5 13.5H8.93359L12.7773 9.65625C12.9883 9.44531 13.2305 9.28516 13.5039 9.17578C13.7773 9.06641 14.0664 9.00781 14.3711 9H25V10.5H24.6602L27.6602 17.0977ZM19 10.5V13.5H24.3789L23.2188 10.9336C23.1562 10.8008 23.0625 10.6953 22.9375 10.6172C22.8125 10.5391 22.6758 10.5 22.5273 10.5H19ZM14.3711 10.5C14.168 10.5 13.9922 10.5742 13.8438 10.7227L11.0664 13.5H17.5V10.5H14.3711ZM10 22.5C10.2109 22.5 10.4062 22.4609 10.5859 22.3828C10.7656 22.3047 10.9219 22.1992 11.0547 22.0664C11.1875 21.9336 11.2969 21.7734 11.3828 21.5859C11.4688 21.3984 11.5078 21.2031 11.5 21C11.5 20.7891 11.4609 20.5938 11.3828 20.4141C11.3047 20.2344 11.1992 20.0781 11.0664 19.9453C10.9336 19.8125 10.7734 19.7031 10.5859 19.6172C10.3984 19.5312 10.2031 19.4922 10 19.5C9.78906 19.5 9.59375 19.5391 9.41406 19.6172C9.23438 19.6953 9.07812 19.8008 8.94531 19.9336C8.8125 20.0664 8.70312 20.2266 8.61719 20.4141C8.53125 20.6016 8.49219 20.7969 8.5 21C8.5 21.2109 8.53906 21.4062 8.61719 21.5859C8.69531 21.7656 8.80078 21.9219 8.93359 22.0547C9.06641 22.1875 9.22656 22.2969 9.41406 22.3828C9.60156 22.4688 9.79687 22.5078 10 22.5ZM10 18C10.4141 18 10.8008 18.0781 11.1602 18.2344C11.5195 18.3906 11.8398 18.6055 12.1211 18.8789C12.4023 19.1523 12.6172 19.4688 12.7656 19.8281C12.9141 20.1875 12.9922 20.5781 13 21H17.5V15H8.5C8.08594 15 7.69922 15.0781 7.33984 15.2344C6.98047 15.3906 6.66016 15.6055 6.37891 15.8789C6.09766 16.1523 5.88281 16.4688 5.73438 16.8281C5.58594 17.1875 5.50781 17.5781 5.5 18V21H7C7 20.5859 7.07813 20.1992 7.23438 19.8398C7.39062 19.4805 7.60547 19.1602 7.87891 18.8789C8.15234 18.5977 8.46875 18.3828 8.82812 18.2344C9.1875 18.0859 9.57812 18.0078 10 18ZM23.5 22.5C23.7109 22.5 23.9062 22.4609 24.0859 22.3828C24.2656 22.3047 24.4219 22.1992 24.5547 22.0664C24.6875 21.9336 24.7969 21.7734 24.8828 21.5859C24.9688 21.3984 25.0078 21.2031 25 21C25 20.7891 24.9609 20.5938 24.8828 20.4141C24.8047 20.2344 24.6992 20.0781 24.5664 19.9453C24.4336 19.8125 24.2734 19.7031 24.0859 19.6172C23.8984 19.5312 23.7031 19.4922 23.5 19.5C23.2891 19.5 23.0938 19.5391 22.9141 19.6172C22.7344 19.6953 22.5781 19.8008 22.4453 19.9336C22.3125 20.0664 22.2031 20.2266 22.1172 20.4141C22.0312 20.6016 21.9922 20.7969 22 21C22 21.2109 22.0391 21.4062 22.1172 21.5859C22.1953 21.7656 22.3008 21.9219 22.4336 22.0547C22.5664 22.1875 22.7266 22.2969 22.9141 22.3828C23.1016 22.4688 23.2969 22.5078 23.5 22.5ZM26.5 18.6562C26.5 18.3359 26.4336 18.0234 26.3008 17.7188L25.0586 15H19V21H20.5C20.5 20.5859 20.5781 20.1992 20.7344 19.8398C20.8906 19.4805 21.1055 19.1602 21.3789 18.8789C21.6523 18.5977 21.9688 18.3828 22.3281 18.2344C22.6875 18.0859 23.0781 18.0078 23.5 18C23.8281 18 24.1445 18.0508 24.4492 18.1523C24.7539 18.2539 25.0312 18.3984 25.2812 18.5859C25.5312 18.7734 25.75 18.9961 25.9375 19.2539C26.125 19.5117 26.2695 19.8008 26.3711 20.1211C26.457 19.9102 26.5 19.7031 26.5 19.5V18.6562Z" fill="#DEE2E6"/>
</g>
<defs>
<filter id="filter0_d_1_139" x="0" y="0" width="32" height="32" filterUnits="userSpaceOnUse" color-interpolation-filters="sRGB">
<feFlood flood-opacity="0" result="BackgroundImageFix"/>
<feColorMatrix in="SourceAlpha" type="matrix" values="0 0 0 0 0 0 0 0 0 0 0 0 0 0 0 0 0 0 127 0" result="hardAlpha"/>
<feOffset dy="4"/>
<feGaussianBlur stdDeviation="2"/>
<feComposite in2="hardAlpha" operator="out"/>
<feColorMatrix type="matrix" values="0 0 0 0 0 0 0 0 0 0 0 0 0 0 0 0 0 0 0.25 0"/>
<feBlend mode="normal" in2="BackgroundImageFix" result="effect1_dropShadow_1_139"/>
<feBlend mode="normal" in="SourceGraphic" in2="effect1_dropShadow_1_139" result="shape"/>
</filter>
<clipPath id="clip0_1_139">
<rect width="24" height="24" fill="white" transform="translate(4)"/>
</clipPath>
</defs>
</svg>
